<svg id="Capa_1" data-name="Capa 1" xmlns="http://www.w3.org/2000/svg" viewBox="0 0 136.7 136.5"><circle cx="18.1" cy="18.1" r="18.1" style="fill:#282828"/><rect x="5.1" y="44.6" width="28.2" height="91.87" rx="2.7" style="fill:#282828"/><path d="M245.9,236.5v-7.8s-.7-2.8-2.5-2.3H220.1s-2.6,1.5-2.8,4.1l-.4,81.8a6.4,6.4,0,0,0,2.1,4.9,3,3,0,0,0,2.3,1.1h21.2a4.4,4.4,0,0,0,1.3-.6,5,5,0,0,0,2.1-4.2c-.1-8.3-.3-43.7,1.8-51.9,0,0,2.5-11.3,14.2-12,0,0,14.1,0,14.9,13l.8,52.7a4.2,4.2,0,0,0,3.4,3h23.5a2.1,2.1,0,0,0,.7-.5,5.7,5.7,0,0,0,2.1-4.2c.2-10.3,1.2-58-2.9-67,0,0-4.1-20.3-27-21.5,0,0-22.6-3.1-30.9,11.6C246.4,236.9,245.9,236.8,245.9,236.5Z" transform="translate(-170.9 -181.7)" style="fill:#282828"/></svg>