<svg id="Capa_1" data-name="Capa 1" xmlns="http://www.w3.org/2000/svg" viewBox="0 0 162.1 103.4"><path d="M174.9,233.6v88a1.5,1.5,0,0,0,2.5,1.1l50.7-47.3a1.5,1.5,0,0,0-.1-2.2l-50.7-40.7A1.5,1.5,0,0,0,174.9,233.6Z" transform="translate(-174.9 -226.9)" style="fill:#282828"/><path d="M184,229.6l71,57.2a1.7,1.7,0,0,0,1.9,0l71.2-57.2a1.5,1.5,0,0,0-1-2.7H185A1.5,1.5,0,0,0,184,229.6Z" transform="translate(-174.9 -226.9)" style="fill:#282828"/><path d="M279.2,278.7l49.6,49a1.5,1.5,0,0,1-1,2.6H184.4a1.5,1.5,0,0,1-1-2.6l50.2-49a1.5,1.5,0,0,1,2-.1L252.7,293c2.9,2.8,4.9,1.7,5.9.8l18.6-15.2A1.5,1.5,0,0,1,279.2,278.7Z" transform="translate(-174.9 -226.9)" style="fill:#282828"/><path d="M284.8,272.9l49.8-40.4a1.5,1.5,0,0,1,2.4,1.1v89a1.5,1.5,0,0,1-2.5,1.1l-49.8-48.6A1.4,1.4,0,0,1,284.8,272.9Z" transform="translate(-174.9 -226.9)" style="fill:#282828"/></svg>