<svg id="Capa_1" data-name="Capa 1" xmlns="http://www.w3.org/2000/svg" xmlns:xlink="http://www.w3.org/1999/xlink" viewBox="0 0 123.6 1160.2"><defs><linearGradient id="Degradado_sin_nombre_61" x1="156.23" y1="1327.13" x2="299.78" y2="204.86" gradientUnits="userSpaceOnUse"><stop offset="0" stop-color="#9ea5f2"/><stop offset="0.45" stop-color="#f4a998"/><stop offset="1" stop-color="#fcedb1"/></linearGradient><linearGradient id="Degradado_sin_nombre_61-2" x1="155.79" y1="1327.07" x2="299.34" y2="204.8" xlink:href="#Degradado_sin_nombre_61"/><linearGradient id="Degradado_sin_nombre_61-3" x1="143.85" y1="1325.54" x2="287.39" y2="203.27" xlink:href="#Degradado_sin_nombre_61"/><linearGradient id="Degradado_sin_nombre_61-4" x1="130.32" y1="1323.81" x2="273.87" y2="201.54" xlink:href="#Degradado_sin_nombre_61"/><linearGradient id="Degradado_sin_nombre_61-5" x1="117.25" y1="1322.14" x2="260.8" y2="199.87" xlink:href="#Degradado_sin_nombre_61"/><linearGradient id="Degradado_sin_nombre_61-6" x1="95.83" y1="1319.4" x2="239.37" y2="197.13" xlink:href="#Degradado_sin_nombre_61"/><linearGradient id="Degradado_sin_nombre_61-7" x1="99.31" y1="1319.85" x2="242.86" y2="197.58" xlink:href="#Degradado_sin_nombre_61"/><linearGradient id="Degradado_sin_nombre_61-8" x1="72.27" y1="1316.39" x2="215.82" y2="194.12" xlink:href="#Degradado_sin_nombre_61"/><linearGradient id="Degradado_sin_nombre_61-9" x1="78.1" y1="1317.14" x2="221.64" y2="194.86" xlink:href="#Degradado_sin_nombre_61"/><linearGradient id="Degradado_sin_nombre_61-10" x1="67.87" y1="1315.83" x2="211.41" y2="193.56" xlink:href="#Degradado_sin_nombre_61"/><linearGradient id="Degradado_sin_nombre_61-11" x1="43.73" y1="1312.74" x2="187.27" y2="190.47" xlink:href="#Degradado_sin_nombre_61"/><linearGradient id="Degradado_sin_nombre_61-12" x1="45.99" y1="1313.03" x2="189.54" y2="190.76" xlink:href="#Degradado_sin_nombre_61"/><linearGradient id="Degradado_sin_nombre_61-13" x1="34.34" y1="1311.54" x2="177.89" y2="189.27" xlink:href="#Degradado_sin_nombre_61"/></defs><path d="M195.9,1181.7c15.4,0,32.3,16.8,32.3,45.3,0,79.2-117.3,69.7-117.3-9.3,0-17.4,8-34.9,23.6-36l9.6,11.6c-21.7,0-29.4,16.3-29.4,27.7,0,59.4,108.9,64.3,108.9-.4,0-19.5-15-35.3-27.9-35.3Z" transform="translate(-104.6 -121.7)" style="fill:url(#Degradado_sin_nombre_61)"/><path d="M134,1129.5c0-60.7,94.2-60.7,94.2,0S134,1190.2,134,1129.5Zm89.6-6c0-18.8-20.4-34.8-52.9-23.4-22.4,7.8-32.2,22.3-32.2,35.4,0,18.8,20.5,34.6,52.9,23.3C213.9,1151.1,223.6,1136.6,223.6,1123.5Z" transform="translate(-104.6 -121.7)" style="fill:url(#Degradado_sin_nombre_61-2)"/><path d="M154.1,1069.5c-10.9,0-15.1,2.7-18.3,6v-18.7h61.4c-43.3-10.3-63.2-25.7-63.2-47.4,0-14,11.9-23.2,26.8-23.2h47.3c10.8,0,14.8-2.8,18.3-6v24.6c-3.3-3.4-7.5-6-18.3-6H158.4c-9.6,0-19.6,3.3-19.6,14.9,0,27,64.4,43.1,87.6,43.1v18.7c-3.3-3.3-7.5-6-18.3-6Z" transform="translate(-104.6 -121.7)" style="fill:url(#Degradado_sin_nombre_61-3)"/><path d="M134,927.1c0-60.7,94.2-60.7,94.2,0S134,987.8,134,927.1Zm89.6-6c0-18.8-20.4-34.8-52.9-23.4-22.4,7.8-32.2,22.3-32.2,35.4,0,18.8,20.5,34.6,52.9,23.3C213.9,948.7,223.6,934.2,223.6,921.1Z" transform="translate(-104.6 -121.7)" style="fill:url(#Degradado_sin_nombre_61-4)"/><path d="M223.8,821.8c0-16.3-11.4-28.6-21.7-28.6l.2-3.6c12.5,0,25.9,13.9,25.9,37.3,0,25.4-17.6,45.3-42.6,45.3-35,0-51.6-29.7-51.6-52.9.1-36.1,33.8-33.7,31.1-8.9a17.7,17.7,0,0,0-11.9-4.5c-10.2,0-15.3,7.6-15.3,17,0,15.6,14,35.9,44.4,35.9C204.6,858.8,223.8,845.7,223.8,821.8Z" transform="translate(-104.6 -121.7)" style="fill:url(#Degradado_sin_nombre_61-5)"/><path d="M104.6,768.9a8.4,8.4,0,0,1,8.2-8.1c4.7,0,7.9,3.2,7.9,8.1s-3.2,8.2-7.9,8.2A8.4,8.4,0,0,1,104.6,768.9Zm103.5-6.3c10.8,0,14.8-2.7,18.3-6v24.6c-3.3-3.2-7.5-5.9-18.3-5.9h-54c-10.9,0-15.1,2.7-18.3,5.9V762.6Z" transform="translate(-104.6 -121.7)" style="fill:url(#Degradado_sin_nombre_61-6)"/><path d="M226.4,605.1v24.7c-3.3-3.5-7.5-6-18.3-6H158.4c-9.6,0-19.6,2.5-19.6,10.8,0,19.6,64.4,34.3,87.6,34.3v18.8c-3.3-3.4-7.5-5.9-18.3-5.9H158.4c-9.6-.2-19.6,2.1-19.6,10.5,0,19.7,64.4,34.4,87.6,34.4v18.8c-3.3-3.4-7.5-6.1-18.3-6.1h-54c-10.9,0-15.1,2.7-18.3,6.1V726.7h60.8c-49.8-11.8-62.6-23.4-62.6-37.3,0-10.2,6.1-20.3,26.8-20.3h35.8c-49.8-11.6-62.6-23.4-62.6-37.5,0-10.2,6.1-20.5,26.8-20.5h47.3C218.9,611.1,222.9,608.6,226.4,605.1Z" transform="translate(-104.6 -121.7)" style="fill:url(#Degradado_sin_nombre_61-7)"/><path d="M104.6,581.7a8.4,8.4,0,0,1,8.2-8.1c4.7,0,7.9,3.2,7.9,8.1s-3.2,8.2-7.9,8.2A8.4,8.4,0,0,1,104.6,581.7Zm103.5-6.3c10.8,0,14.8-2.7,18.3-6v24.7c-3.3-3.3-7.5-6-18.3-6h-54c-10.9,0-15.1,2.7-18.3,6V575.4Z" transform="translate(-104.6 -121.7)" style="fill:url(#Degradado_sin_nombre_61-8)"/><path d="M188.5,500c7.4-31.7,39.7-20.6,39.7,15.6,0,25.4-17.6,45.3-42.6,45.3-35,0-51.6-29.5-51.6-52.7,0-14.9,6.8-27.2,20.4-27.2,17.8,0,27.6,17,32.3,35.5A68.4,68.4,0,0,1,188.5,500Zm-4.7,19c-12-35.1-46-30.9-46-7.9,0,15.6,14.6,36,49.1,36.2C186.7,536.1,186.3,526.5,183.8,519Zm40.2-8.3c0-13.2-7.6-25.5-18.8-25.5-8.2,0-15.3,10.5-15.3,39.1,0,6,.2,11.6.4,15.6s.2,5.1.2,7.2C210.6,545.7,224,531,224,510.7Z" transform="translate(-104.6 -121.7)" style="fill:url(#Degradado_sin_nombre_61-9)"/><path d="M154.1,465.8c-10.9,0-15.1,2.7-18.3,6V453.1h61.4c-43.3-10.3-63.2-25.7-63.2-47.5,0-13.9,11.9-23.2,26.8-23.2h47.3c10.8,0,14.8-2.7,18.3-6v24.7c-3.3-3.5-7.5-6-18.3-6H158.4c-9.6,0-19.6,3.3-19.6,14.9,0,27,64.4,43.1,87.6,43.1v18.7c-3.3-3.3-7.5-6-18.3-6Z" transform="translate(-104.6 -121.7)" style="fill:url(#Degradado_sin_nombre_61-10)"/><path d="M145.2,349.6c42.4,0,38-40.6,65.9-40.6,8.9,0,17.1,5.5,17.1,18,0,19.4-13.3,35.5-45.7,35.3H139.4v11.2h-3.6c0-17.2-18.9-20.4-27.6-20.2v-3.7h27.6V312.5h3.6v37.1Zm41.3,0c13.2,0,38-5.2,38-22.8,0-8.3-4.7-13.8-13-13.8-14.7,0-21.2,14.3-29.2,23.8a49.8,49.8,0,0,1-16.6,12.8Z" transform="translate(-104.6 -121.7)" style="fill:url(#Degradado_sin_nombre_61-11)"/><path d="M134,257c0-60.7,94.2-60.7,94.2,0S134,317.7,134,257Zm89.6-5.9c0-18.9-20.4-34.8-52.9-23.4-22.4,7.8-32.2,22.3-32.2,35.3,0,18.9,20.5,34.6,52.9,23.4C213.9,278.6,223.6,264.1,223.6,251.1Z" transform="translate(-104.6 -121.7)" style="fill:url(#Degradado_sin_nombre_61-12)"/><path d="M228.2,166.3c.2,19.7-7.5,38.6-19.6,38.6-4.7,0-13.8-4.9-11.6-20a13,13,0,0,0,9.2,3.6c12.2,0,17.4-15.7,17.4-28.8S218.2,130,205.5,130c-26.1.2-9.9,74.9-42.7,74.9-12.4,0-28.8-13.8-28.8-43.2a68.5,68.5,0,0,1,8.3-33l13.6,9.8c-11.1,6.2-16.2,20-16.2,32.5s5.8,25,16.5,25c26.3,0,10-74.1,43.2-74.3C219.3,121.7,228.2,144.5,228.2,166.3Z" transform="translate(-104.6 -121.7)" style="fill:url(#Degradado_sin_nombre_61-13)"/></svg>