<svg id="Capa_1" data-name="Capa 1" xmlns="http://www.w3.org/2000/svg" viewBox="0 0 882.9 157.4"><path d="M329.8,717.9c-26.1,0-51.7-10.8-51.7-27.7,0-6,6.3-18.7,25.4-16.1a16.9,16.9,0,0,0-4.6,11.7c0,17.8,18.5,26.6,36.9,26.6,15.5,0,37.6-6.7,37.6-26.1,0-45-95.3-23.5-95.3-76.4,0-29.5,26.1-41.3,53.3-41.3,16,0,32.1,3.2,43.7,10.6l-12.5,17.3c-7.2-14.7-21.7-22.8-37.9-22.8-18.2,0-35.3,10.8-35.3,28.1,0,45.5,94.4,23.6,94.7,76.9C384.1,706.6,356.6,717.9,329.8,717.9Z" transform="translate(-278.1 -560.5)" style="fill:#fff"/><path d="M469.9,667.4c40.4,9.4,26.3,50.5-19.8,50.5-32.4,0-57.7-22.4-57.7-54.2,0-44.6,37.6-65.8,67.1-65.8,18.9,0,34.6,8.8,34.6,26.1,0,22.6-21.7,35.1-45.2,41.1A89.5,89.5,0,0,1,469.9,667.4Zm-24.2-6c44.7-15.3,39.4-58.6,10.1-58.6-19.8,0-45.9,18.6-46.1,62.5C424,665.1,436.2,664.6,445.7,661.4Zm10.6,51.2c16.8,0,32.5-9.7,32.5-24,0-10.4-13.4-19.4-49.8-19.4-7.6,0-14.8.2-19.9.5-3.2.2-6.4.2-9.2.2C411.7,695.5,430.4,712.6,456.3,712.6Z" transform="translate(-278.1 -560.5)" style="fill:#fff"/><path d="M589.7,626.5c-3.7-10.1-14.1-15.9-24.5-15.9-33.9.2-35.5,81.5-35.5,105H505.9c4.1-4.4,7.6-9.5,7.6-23.3V623.5c0-13.8-3.5-19.1-7.6-23.3h23.8v53.3c6.4-31.6,23.3-55.6,47-55.6C592.4,597.9,601.7,613.4,589.7,626.5Z" transform="translate(-278.1 -560.5)" style="fill:#fff"/><path d="M613.7,619.4c-.3-9.7-5.1-16.2-9.3-19.2h35.3c-5.5,4.2-9.9,9.5-9.9,23.3l.2,61.2c0,19.8,10.7,28.4,23.1,28.4,42.9-.3,59.8-90.7,38.6-112.9h33.6c-22.1,9.5-14.3,117.7-75.2,117.7-16.8,0-36.2-6.7-36.2-41.1Z" transform="translate(-278.1 -560.5)" style="fill:#fff"/><path d="M754.2,692.3c0,13.8,3.5,18.9,7.6,23.3H730.4c4.2-4.2,7.6-9.5,7.6-23.3V623.5c0-13.8-3.4-19.1-7.6-23.3h23.8Zm-8.1-131.8a10.7,10.7,0,0,1,10.4,10.4c0,6-4.2,10.2-10.4,10.2s-10.4-4.2-10.4-10.2A10.7,10.7,0,0,1,746.1,560.5Z" transform="translate(-278.1 -560.5)" style="fill:#fff"/><path d="M836.8,712.4c20.8,0,36.5-14.6,36.5-27.7l4.6.2c0,15.9-17.8,33-47.6,33-32.3,0-57.6-22.4-57.6-54.2,0-44.6,37.8-65.8,67.3-65.8,46,.2,43,43.2,11.3,39.7a22.5,22.5,0,0,0,5.8-15.2c0-13-9.7-19.4-21.7-19.4-19.8,0-45.7,17.8-45.7,56.5C789.7,687.9,806.3,712.4,836.8,712.4Z" transform="translate(-278.1 -560.5)" style="fill:#fff"/><path d="M912.3,692.3c0,13.8,3.4,18.9,7.6,23.3H888.5c4.2-4.2,7.6-9.5,7.6-23.3V623.5c0-13.8-3.4-19.1-7.6-23.3h23.8Zm-8.1-131.8a10.7,10.7,0,0,1,10.4,10.4c0,6-4.2,10.2-10.4,10.2s-10.4-4.2-10.4-10.2A10.7,10.7,0,0,1,904.2,560.5Z" transform="translate(-278.1 -560.5)" style="fill:#fff"/><path d="M988.6,597.9c77.4,0,77.4,120,0,120S911.3,597.9,988.6,597.9Zm7.7,114.2c24,0,44.3-26,29.7-67.3-9.9-28.7-28.4-41.1-45-41.1-24,0-44,26.1-29.7,67.4C961.2,699.7,979.6,712.1,996.3,712.1Z" transform="translate(-278.1 -560.5)" style="fill:#fff"/><path d="M1104.3,717.9c-25.2.2-49.2-9.5-49.2-24.9,0-6,6.2-17.6,25.4-14.8a17.1,17.1,0,0,0-4.6,11.8c0,15.4,20.1,22.1,36.7,22.1s37.8-6.9,37.8-23c-.2-33.3-95.3-12.7-95.3-54.5,0-15.7,17.5-36.7,54.9-36.7a87.3,87.3,0,0,1,42,10.6l-12.4,17.3c-7.9-14-25.4-20.5-41.3-20.5s-31.9,7.4-31.9,21c0,33.5,94.4,12.7,94.6,54.9C1161,706.6,1132,717.9,1104.3,717.9Z" transform="translate(-278.1 -560.5)" style="fill:#fff"/></svg>