<svg id="Capa_1" data-name="Capa 1" xmlns="http://www.w3.org/2000/svg" viewBox="0 0 939.1 167.4"><path d="M269.8,731.2c-27.8,0-55-11.5-55-29.5,0-6.3,6.6-19.8,27-17.1a18,18,0,0,0-4.9,12.5c0,18.9,19.6,28.2,39.3,28.2,16.4,0,40-7.1,40-27.7,0-47.9-101.4-25.1-101.4-81.3,0-31.4,27.7-43.9,56.7-43.9,16.9,0,34.1,3.4,46.4,11.3l-13.3,18.4c-7.6-15.7-23-24.3-40.2-24.3-19.4,0-37.6,11.5-37.6,29.9,0,48.4,100.4,25.1,100.7,81.8C327.5,719.2,298.2,731.2,269.8,731.2Z" transform="translate(-214.8 -563.8)" style="fill:#282828"/><path d="M418.8,677.4c42.9,10.1,28,53.8-21.1,53.8-34.4,0-61.4-23.8-61.4-57.7,0-47.4,40-69.9,71.4-69.9,20.2,0,36.8,9.3,36.8,27.7,0,24-23,37.3-48.1,43.7A96.2,96.2,0,0,1,418.8,677.4ZM393,671.1c47.6-16.2,42-62.4,10.8-62.4-21.1,0-48.8,19.9-49.1,66.5C369.9,675,382.9,674.5,393,671.1Zm11.3,54.4c17.9,0,34.6-10.3,34.6-25.5,0-11-14.2-20.6-53-20.6-8.1,0-15.7.2-21.1.5-3.5.2-6.9.2-9.8.2C356.9,707.4,376.8,725.5,404.3,725.5Z" transform="translate(-214.8 -563.8)" style="fill:#282828"/><path d="M546.2,634c-4-10.8-15-16.9-26.1-16.9-36,.2-37.8,86.6-37.8,111.6H457.1c4.4-4.6,8.1-10,8.1-24.8V630.8c0-14.7-3.7-20.4-8.1-24.8h25.2v56.7c6.9-33.6,24.8-59.1,50.1-59.1C549.1,603.6,558.9,620,546.2,634Z" transform="translate(-214.8 -563.8)" style="fill:#282828"/><path d="M571.7,626.4c-.3-10.3-5.4-17.2-9.8-20.4h37.5c-5.9,4.4-10.5,10.1-10.5,24.8l.2,65c0,21.2,11.3,30.2,24.6,30.2,45.6-.2,63.5-96.4,41-120h35.8c-23.6,10.1-15.2,125.2-80,125.2-17.9,0-38.6-7.1-38.6-43.7Z" transform="translate(-214.8 -563.8)" style="fill:#282828"/><path d="M721.2,703.9c0,14.8,3.7,20.2,8.1,24.8H695.9c4.4-4.4,8.1-10,8.1-24.8V630.8c0-14.7-3.7-20.4-8.1-24.8h25.3Zm-8.6-140.1a11.2,11.2,0,0,1,11,11c0,6.4-4.4,10.8-11,10.8s-11.1-4.4-11.1-10.8A11.3,11.3,0,0,1,712.6,563.8Z" transform="translate(-214.8 -563.8)" style="fill:#282828"/><path d="M809,725.3c22.1,0,38.8-15.5,38.8-29.5l4.9.3c0,16.9-18.9,35.1-50.5,35.1-34.4,0-61.4-23.8-61.4-57.7,0-47.4,40.3-69.9,71.7-69.9,48.8.2,45.6,45.9,12,42.2a24.4,24.4,0,0,0,6.2-16.2c0-13.8-10.4-20.6-23.1-20.6-21.1,0-48.6,18.9-48.6,60.1C759,699.3,776.6,725.3,809,725.3Z" transform="translate(-214.8 -563.8)" style="fill:#282828"/><path d="M889.3,703.9c0,14.8,3.7,20.2,8.1,24.8H864c4.5-4.4,8.1-10,8.1-24.8V630.8c0-14.7-3.6-20.4-8.1-24.8h25.3Zm-8.6-140.1a11.3,11.3,0,0,1,11.1,11c0,6.4-4.4,10.8-11.1,10.8s-11-4.4-11-10.8A11.2,11.2,0,0,1,880.7,563.8Z" transform="translate(-214.8 -563.8)" style="fill:#282828"/><path d="M970.6,603.6c82.2,0,82.2,127.6,0,127.6S888.3,603.6,970.6,603.6Zm8.1,121.5c25.5,0,47.1-27.8,31.6-71.7-10.5-30.5-30.2-43.7-47.8-43.7-25.6,0-46.9,27.7-31.7,71.7C941.4,711.8,961,725.1,978.7,725.1Z" transform="translate(-214.8 -563.8)" style="fill:#282828"/><path d="M1093.5,731.2c-26.7.2-52.2-10.1-52.2-26.5,0-6.4,6.6-18.7,27-15.7a17.9,17.9,0,0,0-5,12.5c0,16.4,21.4,23.6,39.1,23.6s40.2-7.4,40.2-24.6c-.2-35.3-101.3-13.5-101.3-57.9,0-16.7,18.6-39,58.4-39a92,92,0,0,1,44.6,11.2l-13.2,18.5c-8.4-15-27-21.9-43.9-21.9s-33.9,7.9-33.9,22.3c0,35.6,100.4,13.5,100.6,58.5C1153.9,719.2,1123,731.2,1093.5,731.2Z" transform="translate(-214.8 -563.8)" style="fill:#282828"/></svg>