<svg id="Capa_1" data-name="Capa 1" xmlns="http://www.w3.org/2000/svg" viewBox="0 0 133.1 134.1"><path d="M194.9,349l9.1-30.1s-28.6-52.3,18.2-87.5c0,0,38.3-26.8,77.2,4.8,0,0,37.1,29.2,15.8,78.4,0,0-11.5,24.6-41.6,32.2-4.5,1.2-24.9,5.8-45.9-5.4Z" transform="translate(-191.2 -218.3)" style="fill:none;stroke:#282828;stroke-miterlimit:10;stroke-width:5px"/><path d="M293.6,300.9l-15.9-8s-1.8-1.3-4.3,1.7l-5.1,6.9s-10.2,1.8-27.8-22.7c0,0,5.9-5.1,6.5-9.9l-7.4-16.5s-5.5-1.8-9,0c0,0-12,8.2-6.2,24.1a72.4,72.4,0,0,0,28.4,33.2s18.4,11.2,29.3,7.9C282.1,317.6,295.9,314.1,293.6,300.9Z" transform="translate(-191.2 -218.3)" style="fill:#282828"/></svg>